<?xml version="1.0" encoding="iso-8859-1"?>
<!-- Generator: Adobe Illustrator 21.0.0, SVG Export Plug-In . SVG Version: 6.00 Build 0)  -->
<svg version="1.1" id="Layer_1" xmlns="http://www.w3.org/2000/svg" xmlns:xlink="http://www.w3.org/1999/xlink" x="0px" y="0px"
	 viewBox="0 0 30 30" style="enable-background:new 0 0 30 30;" xml:space="preserve">
<g>
	<path style="fill:#FFFFFF;" d="M22.5,15c-4.1,0-7.5,3.4-7.5,7.5s3.4,7.5,7.5,7.5s7.5-3.4,7.5-7.5S26.6,15,22.5,15z M22.5,28.1
		c-3.1,0-5.6-2.5-5.6-5.6s2.5-5.6,5.6-5.6s5.6,2.5,5.6,5.6S25.6,28.1,22.5,28.1z"/>
	<path style="fill:#FFFFFF;" d="M25.3,22.5h-2.8v-2.8c0-0.5-0.4-0.9-0.9-0.9s-0.9,0.4-0.9,0.9v3.7c0,0.5,0.4,0.9,0.9,0.9h3.8
		c0.5,0,0.9-0.4,0.9-0.9C26.2,22.9,25.8,22.5,25.3,22.5z"/>
	<path style="fill:#FFFFFF;" d="M4.2,10.8v2.7l0.6-0.2c0.1,0,0.2-0.1,0.2-0.1c3.4-1.4,5.2-2,7-2s3.6,0.6,7,2c0.1,0,0.2,0.1,0.2,0.1
		l0.6,0.2v-2.7c-1.2-0.1-0.6-1-0.7-1.4L20.7,8c0-0.3,0-0.7,0-1.1h-4.8V4.7h-3.3V1.8h-0.9v2.8H8.4v2.2H3.6V8L5,9.3
		C4.8,9.7,5.5,10.7,4.2,10.8z M15.2,9.1h2.3v1.5h-2.3V9.1z M10.9,9.1h2.5v1.5h-2.6L10.9,9.1z M6.8,9.1H9v1.5H6.7L6.8,9.1z"/>
	<path style="fill:#FFFFFF;" d="M18.4,13.9c-1.5-0.7-3.1-1.3-4.7-1.6C13.2,12.1,12.6,12,12,12c-4.3,0.7-8.1,2.7-12,4.9
		c1,1.8,1.9,3.6,2.8,5.4c1.3,2.4,2.5,4.9,3.2,7.6c0.4-0.2,5.2-0.2,5.5-0.8c0.1-0.1,0.1-0.2,0.2-0.2l0.4-8.5h0.1
		c0.1,1.4,0.3,5.5,0.4,8.6c0.1,0.1,0.1,0.1,0.2,0.2c0.2,0.3,2,0.5,3.5,0.6c-2-1.9-3.3-4.4-3.3-7.3C13,18.7,15.2,15.4,18.4,13.9z"/>
</g>
</svg>
