<?xml version="1.0" encoding="utf-8"?>
<!-- Generator: Adobe Illustrator 21.0.0, SVG Export Plug-In . SVG Version: 6.00 Build 0)  -->
<svg version="1.1" id="Layer_1" xmlns="http://www.w3.org/2000/svg" xmlns:xlink="http://www.w3.org/1999/xlink" x="0px" y="0px"
	 viewBox="0 0 30 30" style="enable-background:new 0 0 30 30;" xml:space="preserve">
<style type="text/css">
	.st0{fill:#FFFFFF;}
</style>
<path class="st0" d="M24.4,16.9v3.8c0,0-1.5,3.2-7.5,3.6V11.2H21c0.4,0.6,0.9,0.9,1.5,0.9c1.1,0,1.9-0.8,1.9-1.9s-0.8-1.9-1.9-1.9
	c-0.8,0-1.3,0.4-1.5,0.9h-4.1V6.9c1.1-0.6,1.9-1.9,1.9-3.2C18.8,1.7,17.1,0,15,0s-3.8,1.7-3.8,3.8c0,1.3,0.8,2.6,1.9,3.2v2.4H9
	C8.8,8.8,8.2,8.4,7.5,8.4c-1.1,0-1.9,0.8-1.9,1.9s0.8,1.9,1.9,1.9c0.8,0,1.3-0.4,1.5-0.9h4.1v13.1c-6.2-0.6-7.5-3.8-7.5-3.8v-3.8H0
	C0,16.9,5.2,30,15,30c9.4,0,15-13.1,15-13.1H24.4z M15,1.9c1.1,0,1.9,0.8,1.9,1.9S16.1,5.6,15,5.6s-1.9-0.8-1.9-1.9S13.9,1.9,15,1.9
	z"/>
</svg>
