<?xml version="1.0" encoding="iso-8859-1"?>
<!-- Generator: Adobe Illustrator 21.0.0, SVG Export Plug-In . SVG Version: 6.00 Build 0)  -->
<svg version="1.1" id="Layer_1" xmlns="http://www.w3.org/2000/svg" xmlns:xlink="http://www.w3.org/1999/xlink" x="0px" y="0px"
	 viewBox="0 0 30 30" style="enable-background:new 0 0 30 30;" xml:space="preserve">
<g>
	<path style="fill:#FFFFFF;" d="M0,22.5C0,26.6,3.4,30,7.5,30s7.5-3.4,7.5-7.5S11.6,15,7.5,15S0,18.4,0,22.5z M1.9,22.5
		c0-3.1,2.5-5.6,5.6-5.6s5.6,2.5,5.6,5.6s-2.5,5.6-5.6,5.6S1.9,25.6,1.9,22.5z"/>
	<path style="fill:#FFFFFF;" d="M4.7,22.5h2.8v-2.8c0-0.5,0.4-0.9,0.9-0.9s0.9,0.4,0.9,0.9v3.7c0,0.5-0.4,0.9-0.9,0.9H4.6
		c-0.5,0-0.9-0.4-0.9-0.9C3.8,22.9,4.2,22.5,4.7,22.5z"/>
	<path style="fill:#FFFFFF;" d="M25,9.3L26.4,8V6.8h-4.8V4.6h-3.3V1.8h-0.9v2.9h-3.3v2.2H9.3c0,0.4,0,0.8,0,1.1l1.6,1.4
		c-0.1,0.4,0.5,1.3-0.7,1.4v2.7l0.6-0.2c0,0,0.1-0.1,0.2-0.1c3.4-1.4,5.2-2,7-2s3.6,0.6,7,2c0,0,0.1,0.1,0.2,0.1l0.6,0.2v-2.7
		C24.5,10.7,25.2,9.7,25,9.3z M14.8,10.6h-2.3V9.1h2.3V10.6z M19.2,10.6h-2.6V9.1h2.5L19.2,10.6z M23.3,10.6H21V9.1h2.2L23.3,10.6z"
		/>
	<path style="fill:#FFFFFF;" d="M11.6,13.9c1.5-0.7,3.1-1.3,4.7-1.6c0.5-0.2,1.1-0.3,1.7-0.3c4.3,0.7,8.1,2.7,12,4.9
		c-1,1.8-1.9,3.6-2.8,5.4c-1.3,2.4-2.5,4.9-3.2,7.6c-0.4-0.2-5.2-0.2-5.5-0.8c-0.1-0.1-0.1-0.2-0.2-0.2l-0.4-8.5h-0.1
		c-0.1,1.4-0.3,5.5-0.4,8.6c-0.1,0.1-0.1,0.1-0.2,0.2c-0.2,0.3-2,0.5-3.5,0.6c2-1.9,3.3-4.4,3.3-7.3C17,18.7,14.8,15.4,11.6,13.9z"
		/>
</g>
</svg>
