<?xml version="1.0" encoding="utf-8"?>
<!-- Generator: Adobe Illustrator 16.0.0, SVG Export Plug-In . SVG Version: 6.00 Build 0)  -->
<!DOCTYPE svg PUBLIC "-//W3C//DTD SVG 1.1//EN" "http://www.w3.org/Graphics/SVG/1.1/DTD/svg11.dtd">
<svg version="1.1" id="Layer_1" xmlns="http://www.w3.org/2000/svg" xmlns:xlink="http://www.w3.org/1999/xlink" x="0px" y="0px"
	 width="50px" height="50px" viewBox="0 0 50 50" enable-background="new 0 0 50 50" xml:space="preserve">
<path fill="#FFFFFF" d="M46.197,8.262C46.197,3.707,42.49,0,37.936,0H12.065C7.51,0,3.803,3.707,3.803,8.262
	c0,4.519,3.647,8.201,8.152,8.26v7.351c-1.027,0.303-1.933,0.885-2.597,1.675c-0.854,1.019-1.22,2.312-1.005,3.548
	c0.312,1.799,1.767,3.148,3.6,3.573V35.7c-1.028,0.304-1.934,0.885-2.597,1.677c-0.854,1.019-1.219,2.312-1.005,3.548
	c0.312,1.799,1.769,3.146,3.6,3.572V50h26.087V39.962c2.479-0.679,4.119-2.936,3.718-5.257l0,0c-0.214-1.236-0.993-2.33-2.14-3.004
	c-0.487-0.284-1.021-0.486-1.578-0.6v-2.97c2.479-0.677,4.119-2.936,3.718-5.257l0,0c-0.192-1.113-0.831-2.102-1.8-2.783
	c-0.566-0.4-1.224-0.675-1.918-0.818V16.52C42.551,16.462,46.197,12.78,46.197,8.262z M7.067,8.262c0-2.757,2.243-5,5-5h25.871
	c2.756,0,5,2.243,5,5s-2.244,5-5,5h-3.152v6.208L15.22,23.219v-9.957h-3.152C9.31,13.262,7.067,11.019,7.067,8.262z M34.783,31.297
	l-19.565,3.748v-2.521l19.565-3.752V31.297z M15.218,46.738v-2.385l19.565-3.75v6.135H15.218z M38.551,35.26
	c0.119,0.7-0.609,1.437-1.594,1.607l-23.354,4.477c-0.983,0.165-1.912-0.28-2.033-0.977c-0.068-0.396,0.153-0.732,0.292-0.897
	c0.3-0.359,0.775-0.618,1.303-0.71l23.354-4.475c0.523-0.089,1.054-0.005,1.454,0.229C38.16,34.623,38.482,34.865,38.551,35.26z
	 M38.551,23.43c0.121,0.7-0.609,1.438-1.594,1.607l-23.354,4.477c-0.983,0.165-1.912-0.28-2.033-0.979
	c-0.068-0.396,0.153-0.731,0.292-0.896c0.3-0.358,0.776-0.619,1.303-0.709l23.356-4.475c0.582-0.099,1.152,0.012,1.563,0.302
	C38.267,22.885,38.494,23.105,38.551,23.43z"/>
</svg>
